<?xml version="1.0" standalone="no"?>
<!DOCTYPE svg PUBLIC "-//W3C//DTD SVG 20010904//EN"
 "http://www.w3.org/TR/2001/REC-SVG-20010904/DTD/svg10.dtd">
<svg version="1.0" xmlns="http://www.w3.org/2000/svg"
 width="150.000000pt" height="201.000000pt" viewBox="0 0 150.000000 201.000000"
 preserveAspectRatio="xMidYMid meet">

<g transform="translate(0.000000,201.000000) scale(0.100000,-0.100000)"
fill="#000000" stroke="none">
<path d="M640 1781 c-36 -10 -107 -102 -125 -163 -19 -64 -19 -131 -1 -166 18
-35 72 -85 114 -106 60 -31 39 -56 -75 -92 -7 -2 -13 -10 -13 -18 0 -26 -34
-22 -62 7 -16 15 -28 38 -28 52 0 44 -9 54 -46 48 -31 -5 -34 -4 -34 20 0 15
9 31 25 41 19 12 25 25 25 51 0 31 -3 35 -25 35 -20 0 -25 5 -25 25 0 38 -21
75 -47 81 -30 8 -79 -12 -98 -40 -21 -29 -19 -108 2 -137 10 -13 23 -33 29
-44 7 -12 22 -20 37 -20 21 1 26 -5 29 -33 4 -34 -5 -46 -32 -47 -8 0 -13 -7
-11 -15 2 -8 7 -31 12 -50 12 -53 47 -151 60 -166 6 -8 22 -14 36 -14 18 0 28
-9 38 -34 13 -31 18 -34 73 -40 l59 -7 6 -47 c3 -29 1 -53 -6 -62 -28 -36 -37
-63 -37 -114 0 -39 4 -55 15 -60 9 -3 15 -18 15 -35 0 -49 9 -60 56 -67 l45
-6 -6 -62 c-21 -224 -27 -249 -70 -269 -23 -11 -35 -24 -35 -37 0 -18 7 -20
53 -20 39 0 58 5 70 18 15 17 15 20 1 41 -17 24 -15 113 7 251 l10 66 67 -1
c37 0 75 4 85 9 16 8 17 -3 17 -148 0 -97 -4 -156 -10 -156 -5 0 -10 -6 -10
-12 1 -19 70 -48 113 -48 53 0 47 23 -10 41 l-48 15 -7 54 c-3 30 -6 101 -7
158 l-1 102 34 0 c58 0 66 7 66 61 0 27 4 49 9 49 5 0 11 10 14 21 5 20 7 20
21 6 20 -20 20 -54 1 -91 -22 -42 -20 -76 5 -76 18 0 20 -5 18 -38 -3 -31 0
-37 19 -40 15 -2 30 8 50 34 33 45 38 109 10 163 -24 48 -22 108 4 130 17 14
19 20 10 44 -6 16 -11 49 -11 74 0 52 -34 133 -56 133 -11 0 -14 16 -14 69 0
95 -9 115 -60 130 -27 8 -44 20 -47 32 -6 21 -18 25 -28 9 -13 -20 6 -46 43
-59 60 -22 62 -26 62 -117 0 -81 1 -85 25 -94 30 -11 45 -46 45 -100 0 -21 5
-51 11 -67 9 -24 7 -30 -15 -46 -14 -10 -26 -25 -26 -32 0 -16 -22 -25 -48
-18 -13 3 -22 16 -25 36 -3 18 -10 52 -16 77 -7 31 -7 65 1 108 11 65 5 103
-12 86 -14 -14 -26 -234 -13 -242 5 -4 13 -30 16 -59 l6 -52 -42 -5 c-95 -11
-336 -16 -342 -6 -3 5 -15 10 -26 10 -29 0 -25 60 7 111 21 33 25 51 24 107
-1 37 2 84 6 105 5 30 4 37 -10 37 -10 0 -16 -8 -16 -22 0 -41 -12 -48 -67
-41 -46 5 -52 8 -57 34 -4 22 -11 29 -28 29 -13 0 -30 4 -38 10 -18 11 -50
102 -54 153 -3 34 1 40 37 67 23 17 44 30 48 30 4 0 12 -20 18 -44 6 -24 18
-46 26 -50 8 -3 15 -14 15 -25 0 -30 21 -70 40 -76 10 -3 20 -19 24 -36 7 -36
33 -34 27 2 -5 35 -20 59 -36 59 -8 0 -15 8 -15 18 0 21 29 52 48 52 7 0 12 4
12 9 0 4 21 16 46 26 36 14 51 15 70 6 34 -15 201 -15 210 1 4 6 10 24 13 41
5 23 15 32 46 42 87 31 121 78 131 182 6 65 4 75 -22 122 -61 113 -140 152
-303 150 -53 -1 -107 -4 -121 -8z m271 -40 c62 -23 97 -56 128 -118 36 -72 24
-181 -25 -225 -11 -9 -48 -26 -84 -38 -53 -18 -80 -21 -150 -17 -101 5 -163
31 -215 88 -32 35 -35 45 -35 97 0 66 34 150 71 176 13 9 24 22 24 29 0 40
186 46 286 8z m-80 -431 c62 0 70 -7 42 -35 -14 -15 -29 -16 -92 -11 -78 7
-101 17 -101 44 0 12 9 14 46 8 26 -3 73 -6 105 -6z m109 -685 c0 -22 -5 -35
-13 -35 -23 0 -12 68 11 70 1 0 2 -16 2 -35z m-203 -15 c-2 -43 -3 -43 -59
-34 -33 6 -38 10 -38 35 0 29 11 35 72 38 24 1 26 -2 25 -39z m113 12 c0 -31
-30 -52 -73 -52 -20 0 -22 4 -19 40 l4 40 44 0 c42 0 44 -2 44 -28z m42 -2
c-2 -16 -6 -30 -8 -30 -2 0 -4 14 -4 30 0 17 4 30 8 30 5 0 7 -13 4 -30z
m-282 -6 c0 -31 -23 -28 -28 4 -2 15 2 22 12 22 11 0 16 -9 16 -26z"/>
<path d="M846 1609 c-9 -47 -7 -59 9 -59 10 0 16 11 17 30 0 17 1 35 2 42 2
27 -22 16 -28 -13z"/>
<path d="M682 1594 c2 -20 9 -39 16 -42 10 -3 12 6 10 34 -2 20 -9 39 -16 42
-10 3 -12 -6 -10 -34z"/>
<path d="M640 1477 c0 -8 12 -24 26 -38 23 -22 34 -24 122 -24 86 0 101 3 130
24 50 35 25 48 -33 17 -70 -38 -169 -31 -210 14 -21 23 -35 26 -35 7z"/>
</g>
</svg>
